<svg xmlns="http://www.w3.org/2000/svg" viewBox="0 0 512 512"><defs><radialGradient id="b" cx="50%" cy="50%" r="60%"><stop offset="0" stop-color="#fbf8f1"/><stop offset=".7" stop-color="#f7f3ea"/><stop offset="1" stop-color="#efe5cf"/></radialGradient><radialGradient id="h" cx="50%" cy="50%" r="50%"><stop offset="0" stop-color="#fff5d2" stop-opacity="0"/><stop offset=".5" stop-color="#ffe4a3" stop-opacity=".55"/><stop offset=".72" stop-color="#e0bb6a" stop-opacity=".95"/><stop offset=".85" stop-color="#b8923f" stop-opacity=".7"/><stop offset="1" stop-color="#b8923f" stop-opacity="0"/></radialGradient><radialGradient id="c" cx="50%" cy="50%" r="50%"><stop offset="0" stop-color="#fff"/><stop offset=".35" stop-color="#fff3c4"/><stop offset="1" stop-color="#d8a957" stop-opacity="0"/></radialGradient><linearGradient id="r" x1="0" y1="1" x2="0" y2="0"><stop offset="0" stop-color="#b8923f" stop-opacity=".85"/><stop offset="1" stop-color="#b8923f" stop-opacity="0"/></linearGradient><rect id="y" x="-1.2" y="-152" width="2.4" height="74" rx="1.2" fill="url(#r)"/></defs><rect width="512" height="512" rx="112" fill="url(#b)"/><circle cx="256" cy="256" r="186" fill="none" stroke="#b8923f" stroke-opacity=".25" stroke-width="1.5"/><circle cx="256" cy="256" r="160" fill="none" stroke="#b8923f" stroke-opacity=".35" stroke-width="1.2"/><g transform="translate(256 256)"><use href="#y"/><use href="#y" transform="rotate(30)"/><use href="#y" transform="rotate(60)"/><use href="#y" transform="rotate(90)"/><use href="#y" transform="rotate(120)"/><use href="#y" transform="rotate(150)"/><use href="#y" transform="rotate(180)"/><use href="#y" transform="rotate(210)"/><use href="#y" transform="rotate(240)"/><use href="#y" transform="rotate(270)"/><use href="#y" transform="rotate(300)"/><use href="#y" transform="rotate(330)"/></g><circle cx="256" cy="256" r="138" fill="url(#h)"/><circle cx="256" cy="256" r="36" fill="url(#c)"/><circle cx="256" cy="256" r="14" fill="#b8923f"/><circle cx="256" cy="256" r="6" fill="#fff8e0"/><path d="M120 256Q256 232 392 256" fill="none" stroke="#b8923f" stroke-opacity=".18"/><path d="M120 256Q256 280 392 256" fill="none" stroke="#b8923f" stroke-opacity=".18"/></svg>